Coordinates
version=1
nRows=10
nColumns=40
inDegrees=yes

Units are S.I. units (second, meters, Newtons, ...)
If the header above contains a line with 'inDegrees', this indicates whether rotational values are in degrees (yes) or radians (no).

endheader
time	pelvis_tilt	pelvis_list	pelvis_rotation	pelvis_tx	pelvis_ty	pelvis_tz	hip_flexion_r	hip_adduction_r	hip_rotation_r	knee_angle_r	knee_angle_r_beta	ankle_angle_r	subtalar_angle_r	mtp_angle_r	hip_flexion_l	hip_adduction_l	hip_rotation_l	knee_angle_l	knee_angle_l_beta	ankle_angle_l	subtalar_angle_l	mtp_angle_l	lumbar_extension	lumbar_bending	lumbar_rotation	arm_flex_r	arm_add_r	arm_rot_r	elbow_flex_r	pro_sup_r	wrist_flex_r	wrist_dev_r	arm_flex_l	arm_add_l	arm_rot_l	elbow_flex_l	pro_sup_l	wrist_flex_l	wrist_dev_l
      0.92000000	      0.51396864	      6.54379541	      0.22060724	      0.65117434	      0.94459378	      0.16407644	     24.79924798	    -15.68197845	    -11.42959471	     58.57814951	      1.02238158	     -0.94330583	     -9.73633612	      0.00000000	     -3.74799545	      7.60112630	    -21.24556708	      6.33595971	      0.11058336	      0.73292281	     13.67311312	      0.00000000	     -1.51261543	     -8.38240683	      0.42950207	     36.45204587	    -14.30421629	     36.45204587	     76.17618580	     44.96247535	      0.00000000	      0.00000000	     36.45204587	    -14.30421629	     36.45204587	     76.17618580	     44.96247535	      0.00000000	      0.00000000
      0.92500000	      0.65614798	      6.11522608	      0.92829568	      0.65757650	      0.94539098	      0.16239815	     24.48298896	    -15.26870906	    -12.32641521	     56.78580871	      0.99109933	     -0.60742903	     -9.14824413	      0.00000000	     -4.52618391	      7.19163603	    -20.49497621	      5.98298440	      0.10442278	      0.68033654	     13.88494248	      0.00000000	     -1.80153405	     -7.83983489	     -0.44390034	     36.51375990	    -14.31246812	     36.51375990	     76.14900086	     44.96483494	      0.00000000	      0.00000000	     36.51375990	    -14.31246812	     36.51375990	     76.14900086	     44.96483494	      0.00000000	      0.00000000
      0.93000000	      0.48143090	      6.40347476	      1.14797980	      0.66346226	      0.94483477	      0.16211691	     25.07625816	    -15.36708384	    -12.30184384	     55.52695527	      0.96912819	     -0.29070593	     -9.07393722	      0.00000000	     -4.77976242	      7.48549217	    -20.40296797	      5.95653143	      0.10396109	      0.76990169	     14.08948042	      0.00000000	     -1.70281647	     -8.09445513	     -0.31763518	     36.51630238	    -14.31280719	     36.51630238	     76.14789077	     44.96492918	      0.00000000	      0.00000000	     36.51630238	    -14.31280719	     36.51630238	     76.14789077	     44.96492918	      0.00000000	      0.00000000
      0.93500000	      0.40217009	      6.36147682	      1.56324195	      0.66973027	      0.94472002	      0.16122976	     25.26161378	    -15.25705926	    -12.73940725	     53.93944070	      0.94142084	      0.08250421	     -8.47007863	      0.00000000	     -5.26716881	      7.46341057	    -20.00354527	      5.67998747	      0.09913448	      0.72059640	     14.33686449	      0.00000000	     -1.65079561	     -7.94948397	     -0.55669845	     36.53976300	    -14.31593377	     36.53976300	     76.13767451	     44.96578995	      0.00000000	      0.00000000	     36.53976300	    -14.31593377	     36.53976300	     76.13767451	     44.96578995	      0.00000000	      0.00000000
      0.94000000	      0.22618836	      6.66656366	      1.80136369	      0.67562427	      0.94404289	      0.16092780	     25.79380679	    -15.40446588	    -12.75621588	     52.58011382	      0.91769611	      0.33935102	     -8.44502683	      0.00000000	     -5.51735707	      7.77107754	    -19.86913589	      5.67474941	      0.09904306	      0.83587805	     14.51927917	      0.00000000	     -1.54713534	     -8.21397329	     -0.42574391	     36.54234504	    -14.31627745	     36.54234504	     76.13655477	     44.96588335	      0.00000000	      0.00000000	     36.54234504	    -14.31627745	     36.54234504	     76.13655477	     44.96588335	      0.00000000	      0.00000000
      0.94500000	      0.01676837	      6.95382578	      2.02512076	      0.68167043	      0.94323379	      0.16057732	     26.33170874	    -15.56270654	    -12.82958931	     51.19079871	      0.89344798	      0.59804577	     -8.37167541	      0.00000000	     -5.76240274	      8.06934134	    -19.79804253	      5.61427235	      0.09798754	      0.94355590	     14.68853082	      0.00000000	     -1.43086575	     -8.43499187	     -0.31404546	     36.54446385	    -14.31655941	     36.54446385	     76.13563659	     44.96595982	      0.00000000	      0.00000000	     36.54446385	    -14.31655941	     36.54446385	     76.13563659	     44.96595982	      0.00000000	      0.00000000
      0.95000000	     -0.19387229	      7.21531808	      2.26486152	      0.68768962	      0.94246096	      0.16025678	     26.80122708	    -15.67425176	    -12.88860326	     49.66944999	      0.86689544	      0.83204761	     -8.21647538	      0.00000000	     -6.00738718	      8.33691566	    -19.61046388	      5.55668003	      0.09698236	      1.02054553	     14.90022842	      0.00000000	     -1.22259623	     -8.68571214	     -0.18619274	     36.54690515	    -14.31688423	     36.54690515	     76.13457922	     44.96604774	      0.00000000	      0.00000000	     36.54690515	    -14.31688423	     36.54690515	     76.13457922	     44.96604774	      0.00000000	      0.00000000
      0.95500000	      0.39554236	      5.94035629	      3.46245457	      0.69427016	      0.94456595	      0.15719871	     25.17550383	    -14.54840570	    -14.73679618	     46.71268270	      0.81529012	      0.54158675	     -8.00429834	      0.00000000	     -7.27653510	      6.95200665	    -18.20069877	      5.13649481	      0.08964875	      0.98044671	     14.75912537	      0.00000000	     -2.10725221	     -7.02798951	     -1.99029471	     36.61962203	    -14.32653398	     36.61962203	     76.10337911	     44.96857816	      0.00000000	      0.00000000	     36.61962203	    -14.32653398	     36.61962203	     76.10337911	     44.96857816	      0.00000000	      0.00000000
      0.96000000	      0.16008528	      6.32726203	      3.66191224	      0.70027928	      0.94348367	      0.15692263	     25.69493748	    -14.84192005	    -14.78509921	     45.23552512	      0.78950885	      0.71612368	     -7.91856860	      0.00000000	     -7.47973260	      7.34786751	    -18.11199101	      5.13506200	      0.08962374	      1.12091628	     14.96224203	      0.00000000	     -1.92415499	     -7.38525541	     -1.81967523	     36.62242159	    -14.32690436	     36.62242159	     76.10219034	     44.96867207	      0.00000000	      0.00000000	     36.62242159	    -14.32690436	     36.62242159	     76.10219034	     44.96867207	      0.00000000	      0.00000000
      0.96500000	     -0.09075376	      6.66974328	      3.85428587	      0.70635654	      0.94237039	      0.15663950	     26.18714205	    -15.09014105	    -14.86779597	     43.69096463	      0.76255119	      0.88544119	     -7.79702313	      0.00000000	     -7.67941094	      7.69942863	    -18.02254892	      5.10780571	      0.08914803	      1.23544113	     15.15701740	      0.00000000	     -1.70007146	     -7.71099082	     -1.66318435	     36.62511464	    -14.32726058	     36.62511464	     76.10104763	     44.96876217	      0.00000000	      0.00000000	     36.62511464	    -14.32726058	     36.62511464	     76.10104763	     44.96876217	      0.00000000	      0.00000000
